<?xml version="1.0" encoding="utf-8"?>
<!-- Generator: Adobe Illustrator 21.1.0, SVG Export Plug-In . SVG Version: 6.00 Build 0)  -->
<svg version="1.1" xmlns="http://www.w3.org/2000/svg" xmlns:xlink="http://www.w3.org/1999/xlink" x="0px" y="0px"
	 viewBox="0 0 800 600" style="enable-background:new 0 0 800 600;" xml:space="preserve">
<g id="Layer_3">
</g>
<g id="Layer_1">
	<g id="i8CwJ4_1_">
		<g>
			<g>
				<path d="M221.7,281.3c3.2,0,5.6,0,8.6,0c0,36,0,71.7,0,108c17.6-1.2,32.3-7.2,44-19.7c7.8-8.3,12.1-18.3,12.1-29.8
					c0.1-36.1,0.1-72.3,0-108.4c0-13.9-6.2-25-16.5-34c-23.7-21-64.7-20.8-88.3,0.3c-10.6,9.5-16.2,21.1-16.1,35.6
					c0.2,31-0.1,62-0.1,93c0,3,0,5.9,0.1,8.9c0.8,27.2,15.3,45,42.7,52.1c7.5,1.9,7.5,1.9,6.2,10c-27.7-2.3-52.1-22.8-57-48.7
					c-1.2-6.3-0.9-12.9-0.9-19.4c0-30.7,0.1-61.3,0.1-92c0-29.1,13.8-49.5,41.4-59.3c27.5-9.7,53.6-6.4,76.7,12
					c13.6,10.9,20.6,25.3,20.5,43.1c-0.2,31.3-0.1,62.6-0.2,93.9c0,7.5,0.7,15.1-0.9,22.3c-5.7,26-23.9,39.6-48.2,46.7
					c-2.4,0.7-4.9,1.1-7.3,1.5c-2.5,0.4-4.9,0.6-7.9,1c0,12.1,0,24.3,0,37.5c3.5-4,6.4-7.4,9.3-10.8c2.7,2.8,4.5,4.8,6.1,6.5
					c-6.6,6.6-13.6,13.5-20.1,20c-6.4-6.5-13.5-13.5-20.5-20.5c1.2-1.2,3.2-3.1,5.6-5.4c2.9,3.2,5.9,6.5,8.9,9.8
					c0.5-0.2,1-0.4,1.5-0.5c0-25.5,0-51,0-76.4C221.7,332.9,221.7,307.4,221.7,281.3z"/>
				<path d="M248.2,229.7c0,12.4-9.7,22.2-22,22.3c-12.3,0.1-22.2-9.7-22.3-22c-0.1-12.6,9.8-22.7,22.3-22.6
					C238.4,207.5,248.2,217.4,248.2,229.7z M212.8,229.5c-0.1,7.5,5.6,13.4,12.9,13.5c7.4,0.1,13.4-5.5,13.6-12.9
					c0.2-7.6-5.7-13.8-13.2-13.9C218.8,216.3,212.9,222.2,212.8,229.5z"/>
			</g>
		</g>
	</g>
</g>
<g id="Layer_2">
</g>
</svg>
