<?xml version="1.0" encoding="utf-8"?>
<!-- Generator: Adobe Illustrator 21.1.0, SVG Export Plug-In . SVG Version: 6.00 Build 0)  -->
<svg version="1.1" xmlns="http://www.w3.org/2000/svg" xmlns:xlink="http://www.w3.org/1999/xlink" x="0px" y="0px"
	 viewBox="0 0 800 600" style="enable-background:new 0 0 800 600;" xml:space="preserve">
<g id="Layer_3">
</g>
<g id="Layer_1">
</g>
<g id="Layer_2">
	<g>
		<g>
			<path d="M555.8,188.2c8.2,4.5,10.6,11.7,10.5,20.7c-0.6,60.9-0.8,121.8-1.2,182.6c0,2.6-0.2,5.3-0.6,7.9
				c-0.9,7-4.7,11.7-11.1,14.6c-2.3,0-4.7,0-7,0c-4.2-3.1-8.8-5.8-12.5-9.5c-18.1-17.9-35.8-36.1-53.9-54c-1.9-1.8-5-3.1-7.7-3.2
				c-8-0.5-16-0.7-23.9-0.2c-9.1,0.6-16.6-1.7-21.7-9.7c0.2-24.6,0.3-49.3,0.5-73.9c5.2-8,12.7-10.1,21.9-9.5c8,0.6,16,0.4,24,0.1
				c2.4-0.1,5.2-1.2,6.9-2.8c17.5-16.9,34.8-34.1,52.3-50.9c4.7-4.5,10.3-8.1,15.5-12.1C550.5,188.2,553.2,188.2,555.8,188.2z
				 M555.2,300.3c0.2-30.3,0.5-60.6,0.4-90.9c0-3.4-1.7-6.7-2.7-10.1c-3.2,1.7-7.1,2.7-9.6,5.1c-20.4,19.7-40.5,39.6-60.5,59.7
				c-2.2,2.2-3.8,6-3.9,9.1c-0.5,18.3-0.6,36.6-0.3,54.9c0,3.1,1.7,6.9,3.8,9.1c19.5,20.1,39.3,39.9,59,59.8
				c1.7,1.8,3.6,3.4,5.7,4.8c3.1,2.1,5.5,1.3,6.4-2.3c0.7-3,1.1-6.2,1.1-9.4C554.8,360.3,555,330.3,555.2,300.3z M467.7,335.9
				c0.1-23.7,0.3-46.9,0.4-70.8c-5.8,0-11.4-0.1-17-0.1c-13.5-0.1-13.5-0.1-13.6,13.4c-0.1,16.5-0.2,32.9-0.3,49.4
				c0,3.6,0.2,7.6,4.9,7.8C450.7,336,459.2,335.8,467.7,335.9z"/>
			<path d="M683.2,318.9c-1.7,5.4-3.2,10.9-5,16.3c-8.8,25.5-25.3,44.4-48.9,57.4c-1,0.6-2.2,1.6-3.1,1.4c-2.4-0.4-5.8-0.8-6.6-2.4
				c-0.8-1.5,0.6-4.7,1.7-6.8c0.7-1.2,2.8-1.7,4.2-2.5c27.7-16.4,44.5-40.4,47.1-72.6c3.2-39.5-13.6-69.3-47.4-89.7
				c-0.7-0.4-1.4-0.9-2.1-1.3c-2.9-1.8-4.3-4.4-2.6-7.5c1.8-3.2,4.9-3.7,7.7-1.7c8.2,5.6,16.9,10.8,24.1,17.5
				c16.1,14.9,25.8,33.6,29.9,55.1C682.4,283,683.3,307.6,683.2,318.9z"/>
			<path d="M647.7,303.9c-1.1,24.7-12.5,45.9-35.4,60.5c-1,0.6-2,1.2-3,1.8c-3,1.8-6.1,1.5-8-1.3c-2-3.1-0.4-5.9,2.5-8
				c4.8-3.5,10-6.8,14.2-10.9c28.9-28.2,23.8-76.1-10.3-97.9c-1.3-0.8-3.1-1.3-3.7-2.5c-1.1-2.3-2.7-5.3-2-7.3
				c1.2-3.3,4.6-3.5,7.6-1.8c9,5,16.6,11.6,22.8,19.8C642.4,269.3,647.9,285.3,647.7,303.9z"/>
			<path d="M611.7,301.5c-0.1,15.2-9.5,27.8-24.3,32.9c-3.7,1.3-6.7,1.2-8.1-2.8c-1.4-4,1.3-5.7,4.6-7.5c4.3-2.3,9-4.8,11.9-8.5
				c10-12.4,4.8-30.7-10.1-36.8c-1.1-0.4-2.2-0.8-3.2-1.3c-3.1-1.5-4.3-4.5-2.6-7c1.1-1.6,4.5-3,6.5-2.6
				C601,271.2,611.8,285.8,611.7,301.5z"/>
		</g>
	</g>
	<path d="M694,283"/>
</g>
</svg>
