<?xml version="1.0" encoding="utf-8"?>
<!-- Generator: Adobe Illustrator 22.0.1, SVG Export Plug-In . SVG Version: 6.00 Build 0)  -->
<svg version="1.1" id="Layer_1" xmlns="http://www.w3.org/2000/svg" xmlns:xlink="http://www.w3.org/1999/xlink" x="0px" y="0px"
	 viewBox="0 0 256.5 225.8" style="enable-background:new 0 0 256.5 225.8;" xml:space="preserve">
<g id="Layer_3">
</g>
<g id="Layer_1_1_">
</g>
<g id="Layer_2_1_">
	<g>
		<g>
			<path d="M129.1,0c8.2,4.5,10.6,11.7,10.5,20.7c-0.6,60.9-0.8,121.8-1.2,182.6c0,2.6-0.2,5.3-0.6,7.9c-0.9,7-4.7,11.7-11.1,14.6
				c-2.3,0-4.7,0-7,0c-4.2-3.1-8.8-5.8-12.5-9.5c-18.1-17.9-35.8-36.1-53.9-54c-1.9-1.8-5-3.1-7.7-3.2c-8-0.5-16-0.7-23.9-0.2
				c-9.1,0.6-16.6-1.7-21.7-9.7c0.2-24.6,0.3-49.3,0.5-73.9c5.2-8,12.7-10.1,21.9-9.5c8,0.6,16,0.4,24,0.1c2.4-0.1,5.2-1.2,6.9-2.8
				C70.8,46.2,88.1,29,105.6,12.2c4.7-4.5,10.3-8.1,15.5-12.1C123.8,0,126.5,0,129.1,0z M128.5,112.1c0.2-30.3,0.5-60.6,0.4-90.9
				c0-3.4-1.7-6.7-2.7-10.1c-3.2,1.7-7.1,2.7-9.6,5.1C96.2,35.9,76.1,55.8,56.1,75.9c-2.2,2.2-3.8,6-3.9,9.1
				c-0.5,18.3-0.6,36.6-0.3,54.9c0,3.1,1.7,6.9,3.8,9.1c19.5,20.1,39.3,39.9,59,59.8c1.7,1.8,3.6,3.4,5.7,4.8
				c3.1,2.1,5.5,1.3,6.4-2.3c0.7-3,1.1-6.2,1.1-9.4C128.1,172.1,128.3,142.1,128.5,112.1z M41,147.7c0.1-23.7,0.3-46.9,0.4-70.8
				c-5.8,0-11.4-0.1-17-0.1c-13.5-0.1-13.5-0.1-13.6,13.4c-0.1,16.5-0.2,32.9-0.3,49.4c0,3.6,0.2,7.6,4.9,7.8
				C24,147.8,32.5,147.6,41,147.7z"/>
			<path d="M256.5,130.7c-1.7,5.4-3.2,10.9-5,16.3c-8.8,25.5-25.3,44.4-48.9,57.4c-1,0.6-2.2,1.6-3.1,1.4c-2.4-0.4-5.8-0.8-6.6-2.4
				c-0.8-1.5,0.6-4.7,1.7-6.8c0.7-1.2,2.8-1.7,4.2-2.5c27.7-16.4,44.5-40.4,47.1-72.6c3.2-39.5-13.6-69.3-47.4-89.7
				c-0.7-0.4-1.4-0.9-2.1-1.3c-2.9-1.8-4.3-4.4-2.6-7.5c1.8-3.2,4.9-3.7,7.7-1.7c8.2,5.6,16.9,10.8,24.1,17.5
				c16.1,14.9,25.8,33.6,29.9,55.1C255.7,94.8,256.6,119.4,256.5,130.7z"/>
			<path d="M221,115.7c-1.1,24.7-12.5,45.9-35.4,60.5c-1,0.6-2,1.2-3,1.8c-3,1.8-6.1,1.5-8-1.3c-2-3.1-0.4-5.9,2.5-8
				c4.8-3.5,10-6.8,14.2-10.9c28.9-28.2,23.8-76.1-10.3-97.9c-1.3-0.8-3.1-1.3-3.7-2.5c-1.1-2.3-2.7-5.3-2-7.3
				c1.2-3.3,4.6-3.5,7.6-1.8c9,5,16.6,11.6,22.8,19.8C215.7,81.1,221.2,97.1,221,115.7z"/>
			<path d="M185,113.3c-0.1,15.2-9.5,27.8-24.3,32.9c-3.7,1.3-6.7,1.2-8.1-2.8c-1.4-4,1.3-5.7,4.6-7.5c4.3-2.3,9-4.8,11.9-8.5
				c10-12.4,4.8-30.7-10.1-36.8c-1.1-0.4-2.2-0.8-3.2-1.3c-3.1-1.5-4.3-4.5-2.6-7c1.1-1.6,4.5-3,6.5-2.6
				C174.3,83,185.1,97.6,185,113.3z"/>
		</g>
	</g>
	<path d="M267.3,94.8"/>
</g>
</svg>
